<svg width="32" height="32" viewBox="0 0 32 32" fill="none" xmlns="http://www.w3.org/2000/svg">
  <!-- Rounded square background matching brand -->
  <rect width="32" height="32" rx="7" fill="url(#bg)"/>

  <!-- Droplets icon (matches navbar logo) -->
  <g transform="translate(7, 6)" stroke="white" stroke-width="1.8" stroke-linecap="round" stroke-linejoin="round" fill="none">
    <!-- Large droplet -->
    <path d="M9 3 C9 3 4 9.5 4 13 C4 15.8 6.2 18 9 18 C11.8 18 14 15.8 14 13 C14 9.5 9 3 9 3Z" fill="white" fill-opacity="0.25"/>
    <!-- Small droplet -->
    <path d="M15.5 10 C15.5 10 13 13.5 13 15.2 C13 16.6 14.1 17.7 15.5 17.7 C16.9 17.7 18 16.6 18 15.2 C18 13.5 15.5 10 15.5 10Z" fill="white" fill-opacity="0.35"/>
  </g>

  <defs>
    <linearGradient id="bg" x1="0" y1="0" x2="32" y2="32">
      <stop offset="0%" stop-color="#0d9488"/>
      <stop offset="100%" stop-color="#0f766e"/>
    </linearGradient>
  </defs>
</svg>
